<svg id="svg" xmlns="http://www.w3.org/2000/svg" xmlns:xlink="http://www.w3.org/1999/xlink" width="100" height="100" viewBox="0, 0, 400,299.6138996138996" version="1.1"><g id="svgg"><path id="path0" d="M108.055 2.381 C 106.413 4.359,106.670 5.563,109.567 9.481 L 113.056 14.200 108.422 19.069 C 104.674 23.007,104.114 24.438,105.497 26.551 C 107.559 29.702,103.482 35.068,98.452 35.821 C 94.316 36.440,91.138 41.316,93.791 42.973 C 95.113 43.798,94.352 44.949,91.288 46.759 C 83.850 51.153,82.433 57.112,86.339 67.569 C 88.164 72.452,91.337 83.240,93.391 91.542 C 104.092 134.790,147.222 194.868,161.922 187.001 C 164.384 185.684,166.640 186.154,172.868 189.281 C 177.183 191.449,181.344 192.831,182.116 192.354 C 182.888 191.877,183.780 192.267,184.098 193.221 C 184.416 194.176,187.896 195.224,191.830 195.552 C 195.764 195.880,200.602 196.859,202.581 197.728 C 205.590 199.049,205.168 199.186,200.000 198.562 C 195.477 198.017,194.527 198.223,196.453 199.331 C 199.176 200.898,240.123 204.505,242.117 203.353 C 242.736 202.996,244.633 203.318,246.332 204.069 C 251.478 206.345,208.735 204.247,197.025 201.649 C 183.487 198.645,172.792 194.592,173.857 192.870 C 174.308 192.139,173.485 191.999,172.028 192.558 C 170.242 193.243,169.738 192.992,170.483 191.786 C 171.228 190.580,170.725 190.328,168.939 191.014 C 167.472 191.576,166.681 191.396,167.166 190.610 C 167.649 189.829,166.373 189.089,164.331 188.966 C 159.049 188.650,159.648 189.419,167.954 193.621 C 182.794 201.128,200.407 204.951,231.660 207.447 C 242.271 208.294,273.113 205.546,282.399 202.926 C 286.946 201.643,292.159 200.767,293.982 200.981 C 295.805 201.194,299.730 200.602,302.703 199.665 C 305.676 198.728,310.064 197.526,312.455 196.995 C 315.845 196.242,316.696 195.277,316.316 192.610 C 315.783 188.860,297.869 185.833,293.897 188.820 C 292.875 189.588,290.545 189.742,288.719 189.162 C 286.892 188.583,282.862 188.109,279.764 188.111 C 271.936 188.115,271.361 187.361,275.216 182.147 C 280.050 175.609,277.031 172.853,269.980 177.368 C 267.167 179.169,265.480 180.655,266.231 180.669 C 266.983 180.683,265.814 182.098,263.633 183.814 C 256.479 189.441,226.814 179.330,208.719 165.097 C 206.697 163.506,204.255 162.654,203.293 163.203 C 202.331 163.752,202.023 163.670,202.607 163.020 C 203.192 162.370,198.826 155.851,192.905 148.532 C 174.443 125.709,168.684 107.418,167.960 69.298 L 167.568 48.649 172.201 48.883 C 174.749 49.013,179.961 49.587,183.784 50.159 C 190.236 51.126,190.457 51.051,186.873 49.107 C 184.749 47.955,183.012 46.078,183.012 44.934 C 183.012 43.791,178.147 40.949,172.201 38.618 C 159.408 33.605,154.258 30.926,150.842 27.510 C 149.457 26.125,145.534 24.521,142.124 23.945 C 135.821 22.880,133.705 21.146,133.632 16.988 C 133.602 15.319,131.491 14.538,126.080 14.194 C 118.691 13.724,118.584 13.643,119.466 9.234 C 120.976 1.683,112.739 -3.263,108.055 2.381 M116.996 4.247 C 117.395 5.457,116.143 6.178,113.642 6.178 C 111.047 6.178,109.653 5.330,109.653 3.754 C 109.653 0.849,116.018 1.277,116.996 4.247 M130.735 24.799 C 133.098 25.697,134.359 26.914,133.538 27.502 C 129.734 30.229,131.309 32.566,136.318 31.626 C 140.717 30.801,141.444 31.111,141.655 33.902 C 141.788 35.679,141.324 36.778,140.623 36.344 C 139.921 35.911,138.972 36.993,138.512 38.749 C 137.855 41.263,138.228 41.728,140.267 40.935 C 145.096 39.057,169.392 38.108,170.412 39.759 C 173.860 45.337,155.195 53.981,139.451 54.097 C 136.228 54.121,129.073 56.168,123.552 58.646 C 118.031 61.124,113.282 62.494,112.999 61.691 C 112.176 59.358,106.553 60.007,105.578 62.548 C 105.089 63.822,103.828 64.865,102.777 64.865 C 99.994 64.865,95.276 59.165,96.465 57.240 C 97.023 56.337,96.883 55.598,96.153 55.598 C 93.596 55.598,91.119 59.342,91.096 63.243 C 91.077 66.353,90.757 66.694,89.575 64.865 C 86.011 59.349,89.283 54.532,98.456 51.794 C 101.036 51.024,101.931 51.389,101.931 53.211 C 101.931 54.560,103.671 56.458,105.798 57.427 C 110.073 59.375,113.213 57.818,109.608 55.538 C 108.358 54.748,107.942 54.091,108.683 54.078 C 109.424 54.065,109.257 53.122,108.312 51.983 C 106.924 50.311,109.189 49.256,120.092 46.497 C 135.808 42.520,137.058 41.675,132.855 37.871 C 131.136 36.315,129.730 35.725,129.730 36.559 C 129.730 37.393,127.754 37.785,125.339 37.431 C 122.925 37.076,118.400 37.490,115.284 38.351 C 112.168 39.211,109.953 39.373,110.362 38.711 C 110.772 38.049,115.297 36.618,120.418 35.531 C 130.985 33.288,130.785 33.487,126.641 29.344 C 121.073 23.776,122.852 21.802,130.735 24.799 M123.552 29.038 C 123.552 29.719,120.946 30.331,117.761 30.398 C 113.363 30.491,112.713 30.219,115.058 29.269 C 119.145 27.612,123.552 27.492,123.552 29.038 M150.097 41.795 C 150.468 42.910,151.684 44.126,152.799 44.498 C 153.958 44.884,154.537 44.305,154.151 43.147 C 153.779 42.032,152.563 40.816,151.448 40.444 C 150.290 40.058,149.710 40.637,150.097 41.795 M129.730 46.312 C 128.152 47.318,129.384 47.487,133.591 46.842 C 141.225 45.672,142.525 44.780,136.551 44.811 C 134.073 44.824,131.004 45.500,129.730 46.312 M117.375 53.889 C 117.375 54.647,118.474 55.690,119.817 56.205 C 123.595 57.655,124.095 57.341,122.008 54.826 C 119.877 52.259,117.375 51.753,117.375 53.889 M165.040 69.983 C 165.056 77.796,165.844 87.646,166.791 91.872 C 167.992 97.231,168.019 99.721,166.882 100.100 C 165.985 100.399,165.251 101.322,165.251 102.150 C 165.251 102.979,165.926 103.240,166.750 102.731 C 167.575 102.221,168.675 103.744,169.196 106.114 C 169.717 108.485,171.406 114.351,172.949 119.150 C 174.791 124.878,175.232 128.397,174.233 129.396 C 173.234 130.395,174.584 132.346,178.163 135.075 C 181.161 137.362,185.745 142.554,188.350 146.613 C 190.954 150.672,194.451 155.229,196.120 156.740 C 197.789 158.250,198.830 160.013,198.432 160.656 C 197.185 162.673,209.354 172.509,215.628 174.555 C 218.925 175.630,223.586 178.146,225.988 180.147 C 228.389 182.148,232.212 184.228,234.482 184.769 C 236.752 185.311,239.305 186.273,240.154 186.907 C 241.004 187.541,243.950 188.542,246.700 189.130 C 249.451 189.718,252.099 190.841,252.583 191.625 C 254.269 194.352,244.708 193.077,231.991 188.879 C 221.428 185.392,218.668 184.983,216.182 186.536 C 212.462 188.858,211.077 188.941,212.426 186.759 C 212.989 185.846,212.005 186.003,210.239 187.106 C 207.473 188.833,206.731 188.709,204.906 186.212 C 203.739 184.617,202.041 183.772,201.131 184.334 C 200.221 184.897,198.546 184.426,197.408 183.288 C 196.270 182.150,194.303 181.489,193.036 181.819 C 191.511 182.216,191.646 181.841,193.436 180.708 C 197.683 178.020,196.615 176.062,190.905 176.062 C 185.140 176.062,177.460 171.111,180.403 169.292 C 181.368 168.696,183.373 169.628,184.858 171.363 C 186.344 173.098,189.278 174.517,191.380 174.517 C 198.578 174.517,186.235 164.092,170.060 156.509 C 162.087 152.771,155.920 149.357,156.355 148.922 C 156.790 148.486,159.656 149.327,162.724 150.790 C 165.791 152.253,168.721 153.030,169.234 152.517 C 171.145 150.606,168.007 145.149,164.489 144.266 C 159.125 142.920,155.055 138.139,158.234 136.919 C 161.462 135.680,161.231 133.313,157.409 128.454 L 154.200 124.375 155.235 128.983 L 156.270 133.591 152.977 128.433 C 150.634 124.764,149.145 123.710,147.815 124.780 C 144.636 127.340,139.510 124.193,138.482 119.050 C 137.958 116.430,136.882 114.286,136.091 114.286 C 134.002 114.286,135.918 120.614,139.352 125.060 C 143.271 130.132,140.738 130.677,132.548 126.524 C 120.486 120.408,119.822 114.815,131.739 119.711 C 134.692 120.925,135.013 115.908,132.264 111.521 C 131.315 110.007,131.974 109.769,135.006 110.530 C 139.493 111.657,140.054 110.125,136.774 105.701 C 134.877 103.142,134.085 102.987,131.368 104.646 C 128.483 106.408,128.185 106.227,128.185 102.716 C 128.185 100.585,127.409 98.842,126.461 98.842 C 125.497 98.842,125.092 100.203,125.544 101.929 C 125.988 103.627,125.669 105.438,124.835 105.953 C 123.970 106.488,124.731 108.392,126.609 110.390 C 129.619 113.595,129.672 113.977,127.234 114.913 C 124.565 115.937,122.077 113.650,122.031 110.130 C 121.994 107.199,118.709 105.964,117.155 108.296 C 116.227 109.688,116.099 108.871,116.783 105.937 C 117.569 102.568,117.139 100.945,115.056 99.422 C 112.008 97.193,114.144 92.664,118.245 92.664 C 121.101 92.664,122.770 95.872,120.609 97.207 C 118.661 98.411,119.925 103.475,122.173 103.475 C 122.931 103.475,123.552 101.498,123.552 99.081 C 123.552 94.420,118.621 88.623,116.022 90.229 C 115.172 90.754,113.819 90.011,113.017 88.577 C 111.297 85.504,114.829 80.987,119.691 80.041 C 122.685 79.459,122.993 78.007,121.722 70.475 C 121.352 68.282,122.337 67.466,125.840 67.068 C 128.373 66.780,131.229 65.471,132.188 64.160 C 133.147 62.849,135.071 61.776,136.464 61.776 C 137.857 61.776,138.996 61.026,138.996 60.109 C 138.996 59.055,140.842 58.805,144.015 59.430 C 147.570 60.131,148.382 59.972,146.799 58.887 C 145.029 57.674,145.511 57.144,149.115 56.342 C 151.619 55.784,155.405 54.787,157.529 54.126 C 163.866 52.154,165.008 54.566,165.040 69.983 M158.524 66.866 C 157.333 71.586,158.629 75.193,160.752 73.071 C 161.483 72.339,161.526 69.672,160.847 67.144 L 159.613 62.548 158.524 66.866 M119.353 71.815 C 119.539 72.664,118.050 73.591,116.045 73.875 C 113.904 74.178,112.792 73.754,113.352 72.849 C 113.876 72.000,113.432 70.922,112.365 70.451 C 111.298 69.981,112.358 69.748,114.720 69.933 C 117.082 70.119,119.167 70.965,119.353 71.815 M128.507 81.353 C 126.877 82.007,126.877 82.602,128.507 84.609 C 130.225 86.724,130.097 86.913,127.581 85.968 C 125.215 85.080,124.997 85.278,126.437 87.013 C 127.883 88.756,127.470 89.072,124.209 88.714 C 120.352 88.291,120.304 88.384,122.890 91.242 C 126.468 95.195,127.656 94.985,128.860 90.186 C 129.665 86.979,130.561 86.336,133.275 87.017 L 136.680 87.871 133.196 84.994 C 130.799 83.014,130.317 81.873,131.652 81.335 C 132.718 80.905,132.896 80.553,132.046 80.553 C 131.197 80.553,129.604 80.913,128.507 81.353 M154.619 96.785 C 154.521 99.476,154.862 102.777,155.378 104.121 C 156.947 108.211,158.969 106.849,158.625 101.934 C 158.447 99.387,157.831 97.302,157.256 97.300 C 156.681 97.299,155.893 96.081,155.505 94.595 C 155.116 93.108,154.718 94.094,154.619 96.785 M104.950 105.455 C 104.988 106.969,106.037 110.643,107.281 113.620 C 108.525 116.597,108.872 118.619,108.053 118.113 C 103.033 115.010,115.909 137.189,123.938 145.474 C 125.425 147.008,126.641 149.239,126.641 150.432 C 126.641 152.891,145.515 172.973,147.825 172.973 C 148.652 172.973,150.586 174.363,152.124 176.062 C 154.735 178.947,154.743 179.151,152.241 179.151 C 148.581 179.151,131.952 164.448,127.924 157.651 C 126.122 154.611,121.277 147.149,117.157 141.070 C 109.640 129.978,103.078 116.741,104.428 115.392 C 104.825 114.995,103.383 110.674,101.224 105.791 C 96.828 95.851,96.653 95.173,98.842 96.525 C 99.691 97.050,100.443 96.570,100.512 95.458 C 100.686 92.652,104.864 102.063,104.950 105.455 M138.448 98.043 C 136.654 102.717,140.135 108.434,143.634 106.561 C 146.959 104.782,146.175 101.332,141.577 97.517 C 139.822 96.060,139.167 96.170,138.448 98.043 M145.946 134.363 C 147.645 135.093,148.166 135.739,147.104 135.799 C 144.071 135.969,144.831 140.200,148.994 146.326 C 151.095 149.418,152.591 152.171,152.318 152.444 C 151.686 153.076,137.452 145.160,137.452 144.178 C 137.452 143.776,138.283 143.961,139.300 144.589 C 140.316 145.217,139.605 143.565,137.719 140.916 C 133.112 134.446,137.676 130.809,145.946 134.363 M155.466 159.170 C 158.465 160.310,159.946 160.317,160.321 159.193 C 160.667 158.154,162.449 158.396,165.295 159.868 C 170.959 162.797,172.896 162.820,169.021 159.913 C 166.340 157.901,166.659 157.854,172.042 159.469 L 178.061 161.276 172.830 162.631 C 169.409 163.518,166.658 163.399,164.881 162.289 C 162.883 161.042,161.387 161.076,159.236 162.419 C 155.835 164.543,146.582 162.526,145.552 159.436 C 144.767 157.082,149.630 156.951,155.466 159.170 M172.292 172.152 C 173.941 173.399,174.554 174.441,173.654 174.468 C 172.755 174.495,170.670 173.497,169.021 172.250 C 167.372 171.003,166.759 169.960,167.658 169.933 C 168.558 169.906,170.643 170.905,172.292 172.152 M225.483 190.642 C 225.483 193.692,223.467 194.679,220.776 192.948 C 218.824 191.693,218.833 191.308,220.849 189.985 C 224.093 187.855,225.483 188.053,225.483 190.642 M230.870 192.664 C 230.585 194.151,230.299 195.680,230.234 196.062 C 230.169 196.444,229.342 195.983,228.397 195.038 C 227.452 194.093,227.145 192.564,227.716 191.640 C 229.348 189.000,231.441 189.679,230.870 192.664 M277.220 191.506 C 279.370 192.430,277.140 192.866,269.884 192.942 C 263.892 193.004,259.459 192.394,259.459 191.506 C 259.459 189.642,272.882 189.642,277.220 191.506 M308.494 192.570 C 307.008 192.959,304.575 192.959,303.089 192.570 C 301.602 192.182,302.819 191.864,305.792 191.864 C 308.764 191.864,309.981 192.182,308.494 192.570 M147.876 225.592 C 141.258 229.081,140.859 230.152,145.174 232.846 C 150.254 236.019,149.910 291.911,144.788 295.484 C 141.506 297.773,142.020 297.912,154.054 297.988 C 161.573 298.036,166.795 297.436,166.795 296.525 C 166.795 295.676,165.491 294.981,163.896 294.981 C 157.937 294.981,157.312 291.679,156.689 256.858 C 156.034 220.281,156.282 221.160,147.876 225.592 M270.520 225.456 C 263.296 229.483,263.086 229.892,266.889 232.556 C 272.231 236.297,272.148 291.749,266.795 295.484 C 263.516 297.771,264.056 297.912,276.371 297.988 C 288.187 298.062,292.052 296.270,283.398 294.731 C 279.182 293.981,278.136 282.622,281.989 279.424 C 284.280 277.523,284.893 277.720,287.084 281.062 C 296.821 295.914,298.505 297.272,307.791 297.760 C 317.125 298.251,319.864 295.942,311.998 294.215 C 307.280 293.179,296.096 281.974,292.918 275.101 C 290.794 270.506,296.810 264.961,306.950 262.170 C 316.650 259.500,314.999 258.211,301.155 257.647 C 289.012 257.152,284.015 259.363,292.278 261.573 C 295.565 262.453,285.004 274.587,280.732 274.838 C 280.116 274.874,279.421 263.320,279.188 249.162 C 278.731 221.390,278.576 220.965,270.520 225.456 M86.923 232.527 L 91.189 236.482 90.768 264.573 C 90.357 292.033,90.269 292.698,86.873 294.189 C 80.453 297.005,83.312 298.069,97.297 298.069 C 111.708 298.069,114.829 296.689,106.178 294.142 L 101.158 292.664 100.712 279.151 L 100.266 265.637 108.081 265.637 C 114.919 265.637,116.116 266.120,117.656 269.498 C 120.444 275.619,121.688 274.079,122.335 263.707 C 122.994 253.148,121.428 249.000,119.097 255.130 C 117.620 259.014,112.524 261.004,104.054 261.004 C 100.465 261.004,100.386 260.706,100.386 247.104 L 100.386 233.205 111.151 233.205 C 121.320 233.205,122.105 233.461,125.341 237.838 C 130.017 244.163,131.274 243.672,131.274 235.521 L 131.274 228.571 106.966 228.571 L 82.657 228.571 86.923 232.527 M183.025 259.913 C 175.691 264.066,173.897 268.726,179.632 268.726 C 181.977 268.726,184.395 267.250,185.958 264.865 C 190.727 257.587,198.309 261.250,197.403 270.394 C 196.958 274.882,196.229 275.525,189.728 277.167 C 176.599 280.483,170.870 286.621,174.526 293.452 C 177.257 298.555,182.651 299.807,191.035 297.284 C 195.792 295.852,198.920 295.600,199.890 296.570 C 202.199 298.878,207.402 298.354,211.625 295.387 L 215.444 292.705 210.811 291.903 L 206.178 291.100 205.405 275.219 C 204.831 263.410,204.039 258.963,202.317 257.878 C 198.307 255.351,189.425 256.288,183.025 259.913 M229.856 258.732 C 219.992 264.089,222.905 274.322,236.206 281.037 C 245.853 285.907,247.516 287.963,245.297 292.278 C 243.180 296.394,234.385 295.774,228.853 291.120 C 222.884 286.097,222.100 286.244,222.682 292.278 C 223.891 304.820,252.030 300.751,252.972 287.897 C 253.503 280.653,252.273 279.226,240.349 273.257 C 234.077 270.117,232.432 268.512,232.432 265.535 C 232.432 259.657,241.359 259.361,247.289 265.042 C 251.863 269.424,252.315 269.172,251.750 262.548 C 251.195 256.034,238.802 253.874,229.856 258.732 M197.683 285.549 C 197.683 291.865,196.004 293.436,189.252 293.436 C 181.704 293.436,180.295 284.784,187.293 281.406 C 194.737 277.814,197.683 278.988,197.683 285.549 " stroke="none"  fill-rule="evenodd"></path></g></svg>
